<?xml version="1.0" encoding="UTF-8"?>
<svg xmlns="http://www.w3.org/2000/svg" xmlns:xlink="http://www.w3.org/1999/xlink" width="2000" height="2000" viewBox="0 0 2000 2000">
<!-- background removed -->
<path fill-rule="nonzero" fill="#1e3a5f" fill-opacity="0.12" d="M 789.277344 1754.605469 C 789.773438 1752.292969 788.605469 1750.554688 788.234375 1748.34375 L 788.234375 1748.320312 C 788.257812 1748.320312 788.257812 1748.320312 788.285156 1748.34375 C 788.308594 1748.34375 788.308594 1748.371094 788.308594 1748.394531 C 787.6875 1750.53125 787.738281 1752.617188 788.457031 1754.652344 C 788.78125 1755.597656 789.054688 1755.574219 789.277344 1754.605469 M 815.503906 1449.082031 L 815.503906 1454.644531 C 815.503906 1454.769531 815.601562 1454.867188 815.726562 1454.890625 C 815.851562 1454.890625 815.949219 1454.820312 815.976562 1454.695312 C 816.296875 1452.804688 816.296875 1450.917969 816 1449.054688 C 815.976562 1448.933594 815.875 1448.832031 815.726562 1448.832031 C 815.601562 1448.859375 815.503906 1448.957031 815.503906 1449.082031 M 1197 1412.722656 C 1197.191406 1411.007812 1196.949219 1409.371094 1196.25 1407.804688 C 1195.730469 1406.636719 1195.210938 1406.636719 1194.660156 1407.804688 C 1193.671875 1409.941406 1193.519531 1412.152344 1194.191406 1414.460938 C 1194.460938 1415.332031 1194.140625 1415.753906 1193.25 1415.726562 L 1192.160156 1415.703125 C 1191.089844 1415.675781 1190.570312 1416.199219 1190.589844 1417.292969 C 1190.761719 1423.722656 1188.648438 1429.386719 1184.230469 1434.28125 C 1184.078125 1434.453125 1183.839844 1434.476562 1183.660156 1434.328125 C 1183.488281 1434.207031 1183.441406 1433.980469 1183.539062 1433.785156 C 1185.398438 1430.554688 1186.519531 1427.078125 1186.910156 1423.375 C 1187.109375 1421.488281 1186.820312 1421.390625 1186 1423.101562 C 1177.480469 1441.359375 1175.691406 1460.257812 1180.609375 1479.777344 C 1180.699219 1480.199219 1180.480469 1480.648438 1180.089844 1480.820312 C 1179.660156 1480.96875 1179.210938 1480.820312 1178.988281 1480.421875 L 1176.808594 1476.425781 C 1176.289062 1475.503906 1175.839844 1475.554688 1175.441406 1476.523438 C 1175.269531 1476.972656 1175.210938 1477.445312 1175.289062 1477.964844 C 1178.589844 1499.25 1181.820312 1520.554688 1185 1541.839844 C 1189.550781 1572.339844 1197.25 1590.417969 1207.78125 1614.929688 C 1214.828125 1631.347656 1213.710938 1645.378906 1205.089844 1660.429688 C 1184.359375 1696.761719 1164.859375 1733.792969 1146.660156 1771.464844 C 1135.308594 1794.960938 1119.710938 1820.589844 1099.921875 1848.382812 C 1099.25 1849.324219 1099.46875 1849.894531 1100.609375 1850.09375 C 1105.03125 1850.839844 1109.800781 1850.765625 1113.75 1851.785156 C 1139.828125 1858.515625 1167.621094 1861 1197.101562 1859.257812 C 1256.199219 1855.734375 1320.648438 1854.863281 1390.410156 1856.652344 C 1391.359375 1856.675781 1391.949219 1856.230469 1392.199219 1855.308594 C 1399.109375 1830.003906 1409.441406 1799.234375 1441.230469 1797.839844 C 1444.230469 1797.71875 1447.289062 1797.617188 1450.339844 1797.519531 C 1451.230469 1797.496094 1451.828125 1797.046875 1452.128906 1796.226562 C 1452.96875 1793.867188 1453.589844 1791.460938 1453.988281 1789 C 1458.039062 1763 1461.441406 1736.945312 1464.148438 1710.792969 C 1471.480469 1640.164062 1446.738281 1575.714844 1407.058594 1516.90625 C 1406.929688 1516.734375 1406.710938 1516.660156 1406.511719 1516.757812 C 1406.308594 1516.855469 1406.210938 1517.082031 1406.261719 1517.28125 L 1409.878906 1529.375 C 1410.179688 1530.417969 1408.839844 1531.085938 1408.171875 1530.242188 L 1391.898438 1509.605469 C 1391.628906 1509.234375 1391.109375 1509.160156 1390.710938 1509.378906 C 1390.320312 1509.628906 1390.160156 1510.125 1390.359375 1510.546875 L 1395.308594 1521.402344 C 1395.410156 1521.625 1395.328125 1521.875 1395.128906 1521.996094 C 1394.929688 1522.121094 1394.660156 1522.074219 1394.511719 1521.898438 C 1391.28125 1518.246094 1387.730469 1514.917969 1383.828125 1511.964844 C 1383.609375 1511.789062 1383.429688 1511.566406 1383.308594 1511.320312 C 1382.421875 1509.40625 1381.320312 1507.667969 1380.03125 1506.101562 C 1378.488281 1504.191406 1378.070312 1504.414062 1378.769531 1506.773438 L 1379.679688 1509.828125 C 1379.980469 1510.796875 1378.710938 1511.46875 1378.070312 1510.671875 L 1360.019531 1488.074219 C 1359.789062 1487.75 1359.691406 1487.800781 1359.769531 1488.171875 L 1363.769531 1507.667969 C 1363.890625 1508.238281 1363.140625 1508.5625 1362.800781 1508.113281 C 1354.820312 1497.859375 1348.289062 1486.78125 1343.148438 1474.882812 C 1342.78125 1474.015625 1342.578125 1474.042969 1342.53125 1475.007812 C 1342.179688 1484.746094 1345.808594 1494.15625 1347.378906 1503.71875 C 1347.648438 1505.433594 1347.25 1505.582031 1346.230469 1504.191406 C 1339.699219 1495.300781 1332.570312 1486.929688 1324.851562 1479.109375 C 1317.839844 1471.980469 1313.671875 1465.050781 1310.21875 1456.457031 C 1308.980469 1453.351562 1308.308594 1453.476562 1308.210938 1456.832031 C 1308.128906 1459.414062 1308.710938 1461.847656 1309.921875 1464.15625 C 1311.019531 1466.21875 1310.71875 1466.441406 1309.058594 1464.777344 C 1305.109375 1460.828125 1303.070312 1454.46875 1299.570312 1447.964844 C 1298.839844 1446.625 1298.550781 1446.722656 1298.671875 1448.238281 L 1299.519531 1458.046875 C 1299.570312 1458.519531 1299.238281 1458.941406 1298.800781 1459.066406 C 1298.351562 1459.164062 1297.878906 1458.941406 1297.699219 1458.519531 L 1292.960938 1447.742188 C 1292.660156 1447.042969 1292.238281 1446.421875 1291.71875 1445.878906 C 1288.519531 1442.648438 1286.5 1434.207031 1284.710938 1429.882812 C 1284.621094 1429.660156 1284.390625 1429.5625 1284.171875 1429.609375 C 1283.941406 1429.683594 1283.820312 1429.910156 1283.839844 1430.132812 L 1285.660156 1442.351562 C 1286.230469 1446.101562 1285.679688 1446.277344 1284.039062 1442.824219 C 1277.070312 1428.046875 1271.851562 1413.320312 1268.421875 1398.589844 C 1268.378906 1398.417969 1268.199219 1398.292969 1268.03125 1398.320312 C 1267.851562 1398.34375 1267.730469 1398.515625 1267.730469 1398.691406 L 1269.089844 1420.324219 C 1269.121094 1420.792969 1268.96875 1420.84375 1268.691406 1420.496094 C 1261.839844 1412.027344 1257.871094 1401.996094 1256.75 1390.34375 C 1256.628906 1388.929688 1255.910156 1387.589844 1254.609375 1386.375 C 1253.371094 1385.207031 1253.148438 1385.378906 1253.941406 1386.894531 C 1255.058594 1389.054688 1255.628906 1390.246094 1255.628906 1390.445312 C 1255.378906 1395.4375 1254.539062 1395.4375 1253.101562 1390.445312 C 1249.769531 1378.949219 1246.910156 1367.273438 1244.558594 1355.453125 C 1244.460938 1354.90625 1243.960938 1354.558594 1243.410156 1354.609375 C 1242.871094 1354.660156 1242.441406 1355.105469 1242.441406 1355.652344 C 1242.421875 1357.738281 1242.21875 1359.773438 1241.800781 1361.761719 C 1241.230469 1364.566406 1240.558594 1364.566406 1239.839844 1361.808594 L 1229.179688 1321.28125 C 1229.160156 1321.179688 1229.058594 1321.128906 1228.960938 1321.128906 C 1228.859375 1321.15625 1228.789062 1321.253906 1228.789062 1321.355469 L 1230 1358.753906 C 1230.078125 1360.742188 1229.75 1360.792969 1229.078125 1358.929688 C 1225.660156 1349.34375 1227.46875 1339.957031 1225.179688 1329.921875 C 1225.179688 1329.898438 1225.179688 1329.898438 1225.210938 1329.871094 L 1225.261719 1329.871094 C 1225.328125 1329.847656 1225.359375 1329.847656 1225.359375 1329.847656 L 1225.089844 1367.472656 C 1225.089844 1367.917969 1224.761719 1368.265625 1224.339844 1368.339844 C 1223.890625 1368.390625 1223.5 1368.121094 1223.371094 1367.695312 L 1218.011719 1348 C 1217.929688 1347.753906 1217.710938 1347.605469 1217.441406 1347.628906 C 1217.191406 1347.679688 1217.019531 1347.902344 1217.019531 1348.152344 L 1218.679688 1391.984375 C 1218.699219 1392.679688 1218.230469 1393.277344 1217.558594 1393.402344 C 1216.890625 1393.527344 1216.21875 1393.152344 1216 1392.507812 L 1211.179688 1378.75 C 1210.609375 1377.132812 1210.289062 1377.183594 1210.210938 1378.898438 C 1209.890625 1386.945312 1210.210938 1394.964844 1211.199219 1402.960938 C 1211.28125 1403.535156 1210.929688 1404.105469 1210.359375 1404.253906 C 1209.789062 1404.425781 1209.191406 1404.15625 1208.941406 1403.632812 L 1204.050781 1393.5 C 1203.679688 1392.707031 1203.359375 1392.730469 1203.128906 1393.574219 C 1201.621094 1399.085938 1200.671875 1404.652344 1200.320312 1410.261719 C 1200.25 1411.628906 1199.359375 1412.648438 1197.691406 1413.269531 C 1197.171875 1413.445312 1196.921875 1413.269531 1197 1412.722656 M 632.789062 1430.15625 L 632.667969 1429.039062 C 632.492188 1427.625 632.09375 1427.550781 631.472656 1428.839844 C 630.332031 1431.175781 630.855469 1434.054688 630.429688 1436.140625 C 624.769531 1463.707031 619.453125 1482.734375 622.855469 1505.65625 C 623.007812 1506.75 621.617188 1507.320312 620.96875 1506.425781 L 617.890625 1502.128906 C 617.019531 1500.9375 616.523438 1501.085938 616.351562 1502.550781 C 611.605469 1543.179688 613.941406 1583.292969 623.304688 1622.902344 C 623.726562 1624.617188 623.328125 1624.839844 622.113281 1623.546875 C 620.945312 1622.257812 620.125 1620.691406 619.652344 1618.878906 C 619.503906 1618.308594 619.355469 1618.308594 619.230469 1618.878906 C 619.15625 1619.152344 619.105469 1619.425781 619.03125 1619.699219 C 618.882812 1620.269531 618.957031 1620.890625 619.230469 1621.414062 C 621.464844 1625.859375 622.039062 1630.503906 620.945312 1635.34375 C 620.769531 1636.140625 620.820312 1636.933594 621.09375 1637.707031 L 624.199219 1646.050781 C 624.398438 1646.570312 624.371094 1647.117188 624.171875 1647.613281 L 616.398438 1666.933594 C 616.050781 1667.804688 616.027344 1668.671875 616.300781 1669.570312 C 617.714844 1674.011719 618.039062 1678.484375 617.269531 1682.929688 C 615.28125 1694.726562 614.539062 1706.273438 613.992188 1718.269531 C 613.964844 1719.164062 613.496094 1719.613281 612.601562 1719.585938 C 611.285156 1719.5625 610.441406 1718.890625 610.089844 1717.597656 C 609.71875 1716.285156 609.199219 1716.207031 608.503906 1717.402344 C 605.222656 1723.0625 602.242188 1728.875 599.5625 1734.808594 C 599.1875 1735.628906 598.691406 1736.152344 598.070312 1736.351562 C 597.128906 1736.648438 596.78125 1736.324219 597.054688 1735.355469 L 597.871094 1732.375 C 598.292969 1730.789062 597.972656 1730.613281 596.855469 1731.832031 C 573.113281 1757.929688 573.683594 1783.261719 571.25 1815.078125 C 570.828125 1820.816406 567.546875 1825.609375 561.441406 1829.410156 C 560.746094 1829.832031 560.199219 1830.402344 559.800781 1831.121094 L 541.472656 1864.050781 C 541.050781 1864.824219 541.273438 1865.195312 542.144531 1865.144531 L 564.417969 1863.976562 C 565.3125 1863.953125 565.960938 1863.53125 566.332031 1862.710938 C 570.925781 1852.953125 576.789062 1843.960938 583.890625 1835.789062 C 595.710938 1822.15625 609.941406 1822.652344 625.738281 1821.085938 C 651.019531 1818.554688 653.925781 1799.082031 661.648438 1778.941406 C 674.441406 1745.539062 680.5 1711.441406 679.804688 1676.621094 C 678.785156 1625.632812 678.886719 1579.914062 680.152344 1539.40625 C 682.214844 1472.375 675.332031 1406.367188 659.488281 1341.320312 C 656.632812 1329.625 653.480469 1321.03125 650.027344 1315.589844 C 647.765625 1312.015625 647.144531 1312.289062 648.164062 1316.386719 L 650.996094 1327.636719 C 651.09375 1328.058594 650.871094 1328.507812 650.472656 1328.679688 C 650.050781 1328.828125 649.605469 1328.679688 649.378906 1328.285156 L 644.511719 1319.542969 C 644.015625 1318.648438 643.769531 1318.722656 643.769531 1319.742188 C 643.769531 1320.980469 644.066406 1322.148438 644.664062 1323.265625 C 647.617188 1328.707031 650.546875 1334.667969 653.429688 1341.125 C 654.027344 1342.488281 652.4375 1343.753906 651.242188 1342.863281 C 649.777344 1341.769531 648.214844 1341.46875 646.5 1341.941406 C 645.359375 1342.265625 645.183594 1342.835938 645.980469 1343.707031 C 649.132812 1347.183594 651.242188 1351.15625 652.3125 1355.625 C 652.632812 1356.992188 650.945312 1357.910156 650 1356.867188 L 648.984375 1355.75 C 648.757812 1355.5 648.363281 1355.453125 648.089844 1355.675781 C 647.816406 1355.875 647.742188 1356.246094 647.914062 1356.546875 C 648.386719 1357.316406 648.984375 1357.960938 649.730469 1358.433594 C 650.5 1358.90625 650.574219 1360 649.902344 1360.59375 L 649.15625 1361.265625 C 648.289062 1362.035156 647.417969 1362.035156 646.523438 1361.289062 L 643.742188 1359.003906 C 642.800781 1358.207031 642.300781 1358.433594 642.277344 1359.648438 C 642.105469 1366.105469 644.015625 1372.316406 643.570312 1378.25 C 642.253906 1395.910156 638.824219 1413.21875 633.289062 1430.207031 C 633.214844 1430.480469 632.816406 1430.429688 632.789062 1430.15625 M 950.980469 1250.078125 L 948.621094 1241.535156 C 948.097656 1239.671875 947.652344 1239.671875 947.253906 1241.582031 C 946.410156 1245.78125 946.957031 1249.828125 948.894531 1253.726562 C 949.167969 1254.273438 949.265625 1254.746094 949.191406 1255.117188 C 949.089844 1255.640625 948.867188 1256.0625 948.519531 1256.382812 C 947.824219 1257.054688 947.179688 1257.003906 946.609375 1256.238281 C 942.460938 1250.894531 937.71875 1246.152344 932.378906 1241.980469 C 930.640625 1240.640625 930.339844 1240.914062 931.507812 1242.777344 C 933.570312 1246.054688 939.355469 1251.492188 937.890625 1256.011719 C 937.691406 1256.632812 936.898438 1256.78125 936.476562 1256.308594 L 926.589844 1245.132812 C 925.523438 1243.941406 925.078125 1244.140625 925.226562 1245.730469 C 925.746094 1251.144531 927.113281 1256.261719 929.347656 1261.101562 C 929.523438 1261.5 929.398438 1261.949219 929.027344 1262.171875 C 928.675781 1262.394531 928.207031 1262.320312 927.933594 1262 C 924.730469 1258.097656 921.328125 1254 917.699219 1249.730469 C 917.601562 1249.605469 917.5 1249.53125 917.402344 1249.53125 C 917.230469 1249.503906 917.03125 1249.554688 916.757812 1249.65625 C 916.683594 1249.679688 916.65625 1249.753906 916.707031 1249.828125 C 920.507812 1256.113281 923.957031 1262.621094 927.039062 1269.300781 C 927.238281 1269.746094 927.0625 1270.265625 926.640625 1270.515625 C 926.21875 1270.742188 925.671875 1270.617188 925.398438 1270.21875 L 919.5625 1261.796875 C 918.964844 1260.929688 918.59375 1261.03125 918.421875 1262.046875 C 918.296875 1262.816406 918.394531 1263.613281 918.695312 1264.40625 C 920.707031 1269.769531 922.144531 1274.9375 922.992188 1279.90625 C 923.214844 1281.246094 922.445312 1282.585938 921.152344 1283.035156 C 919.859375 1283.480469 918.445312 1282.933594 917.773438 1281.742188 C 914.945312 1276.601562 910.96875 1272.628906 905.855469 1269.820312 C 904.785156 1269.222656 904.464844 1269.5 904.886719 1270.664062 C 907.070312 1276.453125 907.964844 1282.488281 907.566406 1288.746094 C 907.417969 1290.804688 904.835938 1291.625 903.542969 1290.011719 L 889.3125 1272.15625 C 889.214844 1272.03125 889.066406 1272.007812 888.941406 1272.082031 C 888.792969 1272.15625 888.742188 1272.304688 888.792969 1272.453125 C 891.425781 1280.277344 892.09375 1288.324219 890.804688 1296.570312 C 890.730469 1297.117188 890.035156 1297.289062 889.710938 1296.839844 L 873.765625 1273.917969 C 872.375 1271.90625 871.953125 1272.105469 872.476562 1274.464844 L 876.25 1291.601562 C 876.425781 1292.347656 875.480469 1292.792969 875.007812 1292.199219 L 853.824219 1265.203125 C 853.105469 1264.257812 851.589844 1264.878906 851.714844 1266.046875 C 852.484375 1274.019531 851.636719 1281.792969 849.15625 1289.339844 C 848.632812 1290.90625 846.496094 1291.082031 845.726562 1289.640625 L 835.71875 1271.136719 C 834.875 1269.574219 834.425781 1269.671875 834.378906 1271.460938 C 833.855469 1287.304688 829.984375 1301.335938 825.585938 1316.261719 C 825.4375 1316.808594 825.984375 1317.28125 826.503906 1317.058594 C 827.003906 1316.832031 827.324219 1316.363281 827.449219 1315.640625 C 827.871094 1313.332031 829.0625 1311.445312 830.976562 1310.003906 C 831.945312 1309.285156 832.339844 1309.53125 832.191406 1310.699219 C 830.28125 1325.675781 823.425781 1337.546875 815.503906 1349.441406 C 815.28125 1349.765625 815.675781 1350.136719 815.976562 1349.914062 L 832.640625 1338.292969 C 833.507812 1337.695312 834.578125 1338.664062 834.054688 1339.582031 L 824.070312 1357.015625 C 823.898438 1357.339844 823.972656 1357.738281 824.246094 1357.960938 C 824.519531 1358.183594 824.914062 1358.183594 825.191406 1357.9375 C 829.011719 1354.382812 831.820312 1350.210938 833.609375 1345.371094 C 833.882812 1344.597656 835 1344.773438 835.046875 1345.59375 C 835.222656 1349.292969 834.230469 1353.019531 832.09375 1356.746094 C 831.199219 1358.308594 829.460938 1359.425781 828.519531 1361.164062 C 828.292969 1361.539062 828.394531 1361.636719 828.765625 1361.4375 L 831.296875 1360.097656 C 832.691406 1359.351562 833.136719 1359.722656 832.613281 1361.214844 C 830.675781 1366.675781 829.511719 1372.390625 826.628906 1377.308594 C 823.972656 1381.851562 821.066406 1386.25 817.960938 1390.496094 C 817.539062 1391.066406 817.640625 1391.214844 818.308594 1390.917969 C 819.203125 1390.496094 819.800781 1390.074219 820.097656 1389.652344 C 824.542969 1383.617188 829.511719 1377.730469 834.972656 1372.042969 C 840.933594 1365.832031 841.605469 1366.355469 836.984375 1373.609375 C 831.71875 1381.851562 825.960938 1389.726562 819.675781 1397.199219 C 819.527344 1397.398438 819.527344 1397.671875 819.699219 1397.847656 C 819.875 1398.019531 820.148438 1398.019531 820.347656 1397.871094 L 832.914062 1387.566406 C 833.535156 1387.066406 834.378906 1387.738281 834.082031 1388.457031 C 826.554688 1406.414062 820.792969 1424.941406 816.792969 1444.039062 C 816.621094 1444.859375 816.769531 1445.582031 817.265625 1446.226562 L 818.035156 1447.242188 C 818.410156 1447.742188 818.609375 1448.363281 818.535156 1448.984375 C 816.496094 1473 808.5 1492.691406 813.195312 1518.792969 C 814.285156 1524.976562 811.828125 1530.886719 812.921875 1537.148438 C 814.632812 1546.882812 816.25 1556.917969 817.761719 1567.246094 C 817.8125 1567.621094 817.589844 1567.992188 817.21875 1568.089844 C 816.820312 1568.191406 816.449219 1568.015625 816.296875 1567.644531 L 810.511719 1552.941406 C 810.4375 1552.769531 810.261719 1552.667969 810.066406 1552.71875 C 809.890625 1552.769531 809.792969 1552.964844 809.816406 1553.140625 L 814.039062 1577.15625 C 814.085938 1577.503906 813.890625 1577.851562 813.542969 1577.925781 C 813.21875 1578.027344 812.847656 1577.851562 812.722656 1577.53125 L 808.671875 1567.371094 C 808.648438 1567.296875 808.625 1567.296875 808.648438 1567.371094 C 809.171875 1578.074219 810.910156 1588.628906 813.863281 1599.085938 C 814.1875 1600.300781 813.863281 1600.527344 812.871094 1599.757812 C 808.476562 1596.328125 804.105469 1587.4375 803.507812 1582.046875 C 803.457031 1581.675781 803.136719 1581.378906 802.738281 1581.402344 C 802.367188 1581.425781 802.066406 1581.75 802.066406 1582.125 C 802.09375 1585.375 802.515625 1589.648438 803.53125 1593.078125 C 807.382812 1605.917969 810.089844 1617.5625 811.652344 1627.96875 C 813.167969 1638.027344 812.347656 1638.226562 809.144531 1628.566406 C 808.871094 1627.746094 808.175781 1624.964844 807.058594 1620.246094 C 806.613281 1618.359375 805.246094 1617.464844 804.476562 1615.800781 C 804.453125 1615.726562 804.351562 1615.675781 804.253906 1615.699219 C 804.179688 1615.726562 804.128906 1615.824219 804.152344 1615.898438 C 806.363281 1625.113281 807.207031 1634.796875 811.207031 1643.367188 C 812.921875 1647.015625 814.757812 1650.644531 816.671875 1654.292969 C 817.292969 1655.4375 816.96875 1655.832031 815.726562 1655.488281 C 809.644531 1653.75 805.917969 1650.148438 801.917969 1645.476562 C 801.398438 1644.882812 801.246094 1644.980469 801.421875 1645.75 C 804.402344 1658.320312 813.21875 1665.890625 814.460938 1679.378906 C 814.585938 1680.890625 814.164062 1681.089844 813.144531 1679.972656 L 805.394531 1671.582031 C 805.046875 1671.183594 804.402344 1671.582031 804.601562 1672.078125 L 811.230469 1689.363281 C 811.480469 1689.984375 811.304688 1690.480469 810.710938 1690.800781 L 809.816406 1691.273438 C 809.542969 1691.421875 809.492188 1691.621094 809.644531 1691.894531 C 811.652344 1695.894531 812.796875 1700.164062 813.070312 1704.683594 C 813.144531 1705.828125 811.753906 1706.398438 810.984375 1705.554688 L 808.625 1702.898438 C 807.707031 1701.851562 807.457031 1702.003906 807.902344 1703.320312 C 809.964844 1709.503906 812.773438 1715.316406 816.371094 1720.777344 C 816.84375 1721.472656 816.273438 1722.417969 815.429688 1722.292969 C 810.1875 1721.523438 805.621094 1719.386719 801.671875 1715.910156 C 800.726562 1715.066406 800.429688 1715.265625 800.75 1716.484375 C 801.867188 1720.503906 803.0625 1724.503906 804.351562 1728.476562 C 804.949219 1730.289062 804.300781 1731.410156 802.390625 1731.832031 C 801.917969 1731.929688 801.421875 1731.78125 801.097656 1731.410156 L 793.324219 1722.617188 C 792.828125 1722.042969 792.628906 1722.144531 792.730469 1722.890625 C 793.152344 1725.695312 793.972656 1728.054688 793.871094 1730.789062 C 793.402344 1741.019531 794.070312 1754.976562 789.152344 1759.472656 C 788.433594 1760.140625 787.242188 1759.671875 787.191406 1758.675781 C 787.117188 1757.238281 786.496094 1756.292969 785.277344 1755.820312 C 784.558594 1755.546875 784.160156 1755.027344 784.136719 1754.253906 L 783.765625 1747.453125 C 783.640625 1744.894531 783.21875 1744.84375 782.496094 1747.300781 C 774.425781 1775.292969 769.382812 1794.5625 767.324219 1805.121094 C 762.234375 1831.246094 758.308594 1849.671875 755.578125 1860.402344 C 755.402344 1861.023438 755.652344 1861.320312 756.273438 1861.320312 L 933.222656 1860.773438 C 933.695312 1860.773438 934.089844 1860.476562 934.242188 1860.03125 C 941.542969 1838.574219 957.488281 1814.007812 976.136719 1800.796875 C 986.839844 1793.222656 995.507812 1792.578125 1008.46875 1795.433594 C 1020.191406 1797.992188 1027.890625 1794.738281 1036.019531 1785.375 C 1063.410156 1753.910156 1078.140625 1701.753906 1085.929688 1663.0625 C 1088.839844 1648.730469 1089.289062 1636.191406 1086.699219 1622.605469 C 1082.75 1601.742188 1077.140625 1581.378906 1069.871094 1561.484375 C 1065.71875 1550.136719 1057.601562 1538.785156 1052.308594 1526.867188 C 1051.980469 1526.121094 1051.410156 1525.671875 1050.621094 1525.546875 C 1049.648438 1525.375 1048.878906 1524.804688 1048.308594 1523.785156 C 1041.5 1511.441406 1034.28125 1499.375 1026.648438 1487.527344 C 1026.359375 1487.054688 1026.058594 1487.054688 1025.730469 1487.5 C 1025.539062 1487.773438 1025.558594 1488.046875 1025.789062 1488.371094 C 1028.070312 1491.472656 1029.359375 1494.953125 1029.628906 1498.75 C 1029.730469 1500.019531 1029.429688 1500.117188 1028.738281 1499.050781 C 1012.75 1474.933594 1000.148438 1449.128906 990.988281 1421.664062 C 990.941406 1421.539062 990.988281 1421.441406 991.136719 1421.390625 C 994.21875 1420.371094 994.042969 1420.296875 990.617188 1421.117188 C 990.390625 1421.191406 990.292969 1421.316406 990.367188 1421.539062 C 992.976562 1432.316406 996.601562 1442.75 1001.191406 1452.832031 C 1002.121094 1454.84375 1002.691406 1456.929688 1002.859375 1459.089844 C 1002.980469 1460.304688 1002.730469 1460.378906 1002.140625 1459.3125 C 988.605469 1434.925781 980.734375 1410.710938 979.539062 1382.398438 C 977.925781 1343.628906 969.53125 1307.421875 963.199219 1270.21875 C 961.632812 1261.03125 961.929688 1249.53125 964.09375 1235.746094 C 964.292969 1234.503906 963.894531 1234.28125 962.902344 1235.050781 C 960.242188 1237.113281 958.53125 1239.820312 957.734375 1243.148438 C 957.535156 1243.96875 956.34375 1243.941406 956.195312 1243.097656 L 955.351562 1238.304688 C 955.175781 1237.363281 954.828125 1237.289062 954.257812 1238.054688 C 952.296875 1240.761719 954.480469 1246.375 951.824219 1250.226562 C 951.453125 1250.796875 951.152344 1250.75 950.980469 1250.078125 M 234.78125 571.828125 L 240.121094 564.53125 C 240.691406 563.730469 240.570312 563.578125 239.722656 564.078125 C 236.644531 565.890625 235.003906 568.480469 234.78125 571.828125 L 233.761719 572.398438 C 232.820312 572.921875 232.472656 572.648438 232.746094 571.609375 C 234.980469 562.808594 239.527344 555.53125 246.378906 549.75 C 246.578125 549.601562 246.605469 549.328125 246.480469 549.101562 C 246.355469 548.910156 246.082031 548.808594 245.859375 548.910156 L 230.558594 555.160156 C 229.441406 555.609375 228.300781 554.539062 228.671875 553.398438 C 230.386719 548.230469 233.589844 544.191406 238.285156 541.28125 C 240.269531 540.039062 239.75 537.011719 237.464844 536.488281 L 229.691406 534.769531 C 227.679688 534.328125 227.730469 531.441406 229.742188 531.070312 L 245.113281 528.171875 C 246.605469 527.890625 246.628906 525.761719 245.136719 525.460938 C 232.597656 522.828125 224.574219 515.398438 221.074219 503.179688 C 220.675781 501.789062 221.917969 500.449219 223.332031 500.769531 L 232.71875 502.890625 C 233.789062 503.109375 234.160156 502.710938 233.789062 501.691406 C 229.988281 490.691406 238.183594 475.039062 243.796875 462.449219 C 246.828125 455.671875 246.253906 446.53125 244.765625 438.140625 C 239.972656 411.191406 237.242188 384.019531 236.621094 356.628906 C 236.097656 334.078125 214.988281 314.191406 223.554688 291.308594 C 224.972656 287.519531 225.839844 283.738281 226.164062 280.019531 C 226.859375 271.988281 228.671875 264.269531 231.578125 256.820312 C 240.097656 235.109375 237.042969 210.921875 239.328125 189.609375 C 242.804688 157.179688 248.691406 127.148438 256.984375 99.558594 C 260.882812 86.671875 276.828125 76.660156 289.417969 84.488281 C 293.667969 87.089844 298.039062 92.058594 302.53125 99.359375 C 331.789062 146.820312 360.199219 199.648438 377.1875 253.640625 C 377.4375 254.460938 377.980469 254.808594 378.828125 254.660156 C 411.609375 248.550781 443.796875 250.730469 475.386719 261.238281 C 476.28125 261.539062 476.875 261.238281 477.148438 260.339844 C 480.152344 250.980469 482.585938 244.179688 484.449219 239.960938 C 504.890625 193.78125 529.300781 148.910156 557.738281 105.371094 C 563.574219 96.429688 572.691406 88.058594 584.039062 90.691406 C 601.820312 94.769531 605.199219 121.171875 608.800781 135.648438 C 618.164062 173.371094 626.011719 211.421875 632.320312 249.789062 C 634.902344 265.589844 638.15625 280.261719 642.179688 293.851562 C 651.617188 325.640625 626.878906 332.769531 622.734375 358.820312 C 622.085938 362.859375 622.535156 367.558594 624.097656 372.898438 C 627.847656 385.941406 630.902344 399.148438 633.261719 412.53125 C 634.453125 419.410156 639.125 422.988281 641.957031 427.980469 C 642.949219 429.71875 642.699219 431.160156 641.234375 432.28125 C 640.714844 432.699219 640.367188 433.300781 640.242188 433.941406 L 638.15625 447.011719 C 638.03125 447.929688 638.28125 448.691406 638.949219 449.320312 L 644.8125 454.78125 C 645.878906 455.800781 645.679688 456.289062 644.214844 456.269531 L 643.320312 456.269531 C 643 456.269531 643 456.289062 643.320312 456.371094 C 646.5 456.941406 649.207031 458.210938 651.417969 460.191406 C 652.683594 461.308594 652.460938 461.878906 650.773438 461.960938 C 645.78125 462.160156 640.8125 461.808594 635.871094 460.890625 C 635.84375 460.890625 635.820312 460.910156 635.820312 460.941406 L 635.820312 461.558594 C 635.820312 461.679688 635.921875 461.78125 636.117188 461.859375 C 650.101562 466.398438 663.785156 471.691406 677.222656 477.699219 C 679.007812 478.5 678.933594 478.800781 676.996094 478.601562 L 663.238281 477.179688 C 662.964844 477.160156 662.71875 477.328125 662.644531 477.601562 C 662.570312 477.871094 662.71875 478.148438 662.964844 478.25 L 692.644531 490.289062 C 692.917969 490.390625 693.066406 490.691406 692.964844 490.988281 C 692.894531 491.261719 692.59375 491.441406 692.320312 491.359375 L 681.566406 488.980469 C 680.824219 488.828125 680.773438 488.949219 681.417969 489.351562 L 683.179688 490.46875 C 683.800781 490.871094 684.449219 491.109375 685.167969 491.238281 C 693.539062 492.601562 701.3125 494.691406 707.320312 501.269531 C 709.605469 503.75 711.992188 506.109375 714.472656 508.371094 C 715.441406 509.238281 715.269531 509.621094 713.976562 509.460938 L 705.980469 508.601562 C 704.664062 508.449219 704.492188 508.820312 705.457031 509.738281 L 710.550781 514.511719 C 711.617188 515.53125 711.417969 516.148438 710.003906 516.421875 L 705.1875 517.320312 C 704.441406 517.460938 704.214844 518.429688 704.835938 518.878906 C 706.875 520.339844 708.835938 521.78125 710.75 523.148438 C 711.371094 523.621094 711.742188 524.121094 711.839844 524.660156 C 712.015625 525.78125 711.617188 526.011719 710.699219 525.390625 C 709.160156 524.320312 707.46875 523.851562 705.609375 523.921875 C 703.296875 524.019531 703.171875 524.621094 705.1875 525.730469 L 710.402344 528.570312 C 711.816406 529.339844 711.742188 529.929688 710.203125 530.351562 L 704.066406 532.019531 C 703.398438 532.191406 703.171875 532.609375 703.398438 533.261719 C 704.960938 537.878906 707.695312 541.53125 711.570312 544.210938 C 712.613281 544.929688 712.066406 546.570312 710.796875 546.550781 C 705.558594 546.421875 700.914062 547.910156 696.816406 551.039062 C 695.550781 552.011719 695.699219 552.460938 697.289062 552.328125 C 704.167969 551.890625 710.527344 553.25 716.410156 556.449219 C 721.875 559.429688 727.089844 562.761719 732.03125 566.410156 C 733.199219 567.261719 733.101562 567.929688 731.734375 568.398438 L 725.375 570.558594 C 724.804688 570.761719 724.707031 571.53125 725.203125 571.851562 L 737.917969 580.351562 C 738.835938 580.941406 738.488281 582.378906 737.398438 582.511719 L 724.707031 583.96875 C 723.835938 584.070312 723.738281 585.289062 724.582031 585.53125 L 742.5625 590.679688 C 743.582031 590.980469 743.582031 592.421875 742.5625 592.691406 L 726.496094 597.160156 C 725.476562 597.429688 725.453125 597.730469 726.46875 598.058594 C 758.433594 607.941406 787.140625 620.648438 812.621094 636.199219 C 834.949219 649.839844 851.242188 659.570312 861.5 665.460938 C 898.851562 686.839844 939.109375 697.839844 982.246094 698.460938 C 1060.75 699.558594 1128.199219 704.050781 1184.648438 711.949219 C 1236.441406 719.21875 1291.339844 732.191406 1349.390625 750.859375 C 1399.230469 766.910156 1440.679688 792.441406 1473.761719 827.480469 C 1493.898438 848.839844 1514.289062 874.769531 1534.910156 905.238281 C 1544.320312 919.148438 1552.539062 933.480469 1559.539062 948.25 C 1585 1001.898438 1604 1057.726562 1616.539062 1115.742188 C 1625.078125 1155.28125 1628.980469 1203.289062 1635.460938 1240.140625 C 1641.890625 1276.652344 1652.03125 1315.742188 1665.910156 1357.390625 C 1680.339844 1400.628906 1699.859375 1439.097656 1724.519531 1472.796875 C 1740.21875 1494.28125 1762.671875 1515.914062 1782.488281 1536.351562 C 1825.480469 1580.683594 1861.730469 1634.824219 1875.570312 1695.695312 C 1876.289062 1698.796875 1877.699219 1701.679688 1879.820312 1704.363281 C 1888.160156 1714.867188 1893.851562 1726.761719 1896.878906 1740.050781 C 1897.050781 1740.820312 1896.261719 1741.464844 1895.539062 1741.144531 L 1863.601562 1727.085938 C 1861.960938 1726.367188 1861.589844 1726.789062 1862.480469 1728.351562 L 1868.140625 1738.238281 C 1868.539062 1738.933594 1867.75 1739.726562 1867.050781 1739.304688 C 1860.519531 1735.457031 1853.691406 1732.550781 1846.511719 1730.613281 C 1828.328125 1725.695312 1820.238281 1723.410156 1807.988281 1713.253906 C 1807.789062 1713.082031 1807.46875 1713.082031 1807.269531 1713.277344 C 1807.101562 1713.453125 1807.050781 1713.75 1807.21875 1713.972656 L 1818.378906 1728.875 C 1818.648438 1729.222656 1818.601562 1729.71875 1818.300781 1730.042969 C 1817.980469 1730.339844 1817.480469 1730.390625 1817.128906 1730.117188 L 1788.25 1708.085938 C 1787.980469 1707.863281 1787.75 1707.9375 1787.578125 1708.261719 C 1787.449219 1708.484375 1787.359375 1708.683594 1787.230469 1708.90625 C 1787.179688 1708.980469 1787.179688 1709.082031 1787.25 1709.15625 C 1789.609375 1711.714844 1791.949219 1714.347656 1794.230469 1717.003906 C 1794.480469 1717.300781 1794.480469 1717.722656 1794.230469 1718.019531 C 1793.980469 1718.292969 1793.558594 1718.371094 1793.238281 1718.171875 L 1766.339844 1701.554688 C 1766.089844 1701.40625 1765.800781 1701.679688 1765.96875 1701.929688 L 1773.75 1713.203125 C 1774.171875 1713.800781 1773.421875 1714.542969 1772.820312 1714.125 C 1767.878906 1710.71875 1764.410156 1707.492188 1762.339844 1704.4375 C 1759.980469 1700.960938 1757.480469 1698.425781 1754.871094 1696.8125 C 1753.03125 1695.695312 1752.808594 1695.945312 1754.179688 1697.609375 L 1759.558594 1704.113281 C 1760.058594 1704.683594 1759.941406 1704.882812 1759.191406 1704.683594 C 1752.109375 1702.671875 1745.160156 1693.085938 1739.25 1687.773438 C 1737.960938 1686.605469 1737.660156 1686.828125 1738.359375 1688.417969 L 1742.128906 1697.160156 C 1742.550781 1698.101562 1742.351562 1698.253906 1741.558594 1697.582031 C 1733.730469 1691.175781 1727.679688 1680.546875 1722.160156 1672.101562 C 1721.570312 1671.207031 1721.140625 1671.28125 1720.921875 1672.324219 L 1720.648438 1673.589844 C 1720.449219 1674.535156 1719.160156 1674.734375 1718.710938 1673.867188 L 1708.398438 1654.292969 C 1708.199219 1653.921875 1707.78125 1653.75 1707.378906 1653.898438 C 1706.988281 1654.019531 1706.769531 1654.417969 1706.808594 1654.816406 L 1707.410156 1658.890625 C 1707.511719 1659.535156 1707.109375 1660.128906 1706.519531 1660.304688 C 1705.890625 1660.503906 1705.21875 1660.207031 1704.949219 1659.632812 L 1693.230469 1635.46875 C 1693.128906 1635.246094 1692.859375 1635.121094 1692.628906 1635.195312 C 1692.378906 1635.269531 1692.230469 1635.496094 1692.261719 1635.742188 L 1694.5 1652.507812 C 1694.621094 1653.328125 1694.351562 1653.476562 1693.699219 1652.953125 C 1682.898438 1643.988281 1677.609375 1631.097656 1672.171875 1617.414062 C 1672.089844 1617.214844 1671.800781 1617.191406 1671.691406 1617.390625 C 1671.570312 1617.613281 1671.46875 1617.835938 1671.421875 1618.058594 C 1671.398438 1618.183594 1671.421875 1618.332031 1671.449219 1618.484375 C 1672.859375 1624.019531 1673.730469 1627.796875 1674.03125 1629.808594 C 1675.070312 1636.808594 1673.980469 1637.109375 1670.78125 1630.703125 L 1659.851562 1608.796875 C 1659.648438 1608.398438 1659.199219 1608.226562 1658.78125 1608.375 C 1658.359375 1608.523438 1658.140625 1608.96875 1658.238281 1609.390625 L 1660.070312 1617.089844 C 1660.148438 1617.414062 1659.96875 1617.738281 1659.679688 1617.886719 C 1659.378906 1618.011719 1659.011719 1617.886719 1658.828125 1617.613281 L 1641.46875 1590.371094 C 1640.648438 1589.078125 1640.378906 1589.175781 1640.699219 1590.691406 L 1641.820312 1595.832031 C 1642.191406 1597.546875 1641.75 1597.769531 1640.5 1596.550781 C 1634.640625 1590.742188 1630.070312 1584.035156 1626.769531 1576.4375 C 1626.199219 1575.144531 1625.75 1575.167969 1625.398438 1576.535156 L 1623.21875 1584.730469 C 1622.941406 1585.796875 1621.378906 1585.699219 1621.261719 1584.582031 C 1619.941406 1571.890625 1615.988281 1560.019531 1609.460938 1548.96875 C 1609.410156 1548.894531 1609.390625 1548.894531 1609.390625 1548.992188 L 1611.5 1563.84375 C 1611.621094 1564.640625 1611.101562 1565.410156 1610.308594 1565.609375 C 1609.539062 1565.804688 1608.710938 1565.382812 1608.441406 1564.617188 L 1601.019531 1544.449219 C 1600.738281 1543.726562 1600.539062 1543.726562 1600.390625 1544.5 L 1597.171875 1560.121094 C 1596.769531 1562.082031 1593.988281 1562.15625 1593.460938 1560.21875 L 1586.539062 1533.769531 C 1585.960938 1531.507812 1585.46875 1531.535156 1585.101562 1533.820312 L 1584.351562 1538.164062 C 1584.199219 1539.007812 1583.011719 1539.058594 1582.808594 1538.214844 C 1581.171875 1531.335938 1580.480469 1522.695312 1576.28125 1516.78125 C 1576.03125 1516.410156 1575.878906 1516.457031 1575.859375 1516.90625 L 1575.289062 1529.199219 C 1575.261719 1529.546875 1574.988281 1529.820312 1574.660156 1529.84375 C 1574.320312 1529.84375 1574.019531 1529.621094 1573.941406 1529.273438 L 1568.058594 1497.261719 C 1567.859375 1496.121094 1566.300781 1495.921875 1565.820312 1496.988281 C 1564.359375 1500.292969 1563.039062 1503.445312 1561.878906 1506.453125 C 1560.410156 1510.203125 1561.5 1513.15625 1561.648438 1516.980469 C 1561.679688 1517.328125 1561.398438 1517.601562 1561.078125 1517.625 C 1560.761719 1517.675781 1560.441406 1517.425781 1560.390625 1517.105469 L 1557.53125 1500.390625 C 1557.28125 1498.902344 1555.171875 1498.75 1554.71875 1500.191406 C 1553.558594 1503.941406 1553.558594 1507.640625 1554.71875 1511.292969 C 1554.800781 1511.515625 1554.699219 1511.765625 1554.46875 1511.839844 C 1554.25 1511.941406 1554 1511.863281 1553.878906 1511.667969 C 1551.640625 1508.066406 1550.851562 1504.117188 1551.5 1499.820312 C 1551.691406 1498.550781 1551.171875 1497.757812 1549.910156 1497.460938 C 1549.609375 1497.386719 1549.328125 1497.285156 1549.089844 1497.164062 C 1548.738281 1497.011719 1548.519531 1496.667969 1548.488281 1496.292969 L 1547.128906 1475.78125 C 1547.101562 1475.332031 1546.730469 1474.984375 1546.28125 1474.984375 C 1545.828125 1474.984375 1545.460938 1475.332031 1545.429688 1475.78125 C 1545.089844 1480.375 1544.570312 1484.917969 1543.839844 1489.414062 C 1543.03125 1494.40625 1542.28125 1494.40625 1541.589844 1489.386719 C 1539.921875 1477.34375 1539.078125 1465.296875 1539.050781 1453.203125 C 1539.050781 1452.855469 1538.78125 1452.558594 1538.460938 1452.535156 C 1538.109375 1452.507812 1537.789062 1452.734375 1537.730469 1453.082031 L 1533.710938 1476.078125 C 1533.589844 1476.75 1532.640625 1476.773438 1532.46875 1476.125 C 1531.03125 1470.8125 1529.140625 1466.691406 1529.390625 1460.851562 C 1529.660156 1453.277344 1528.519531 1445.902344 1525.941406 1438.726562 C 1525.839844 1438.453125 1525.570312 1438.300781 1525.289062 1438.378906 C 1525 1438.425781 1524.820312 1438.699219 1524.851562 1438.972656 L 1526.261719 1452.632812 C 1526.828125 1458.246094 1526.210938 1458.394531 1524.351562 1453.054688 C 1522.039062 1446.472656 1520.28125 1438.203125 1519.011719 1428.292969 C 1518.839844 1427.003906 1518.410156 1426.082031 1517.71875 1425.5625 C 1517.441406 1425.339844 1517.019531 1425.539062 1517.019531 1425.910156 L 1516.769531 1439.867188 C 1516.75 1440.539062 1516.53125 1440.636719 1516.058594 1440.167969 C 1515.429688 1439.570312 1515.011719 1438.800781 1514.808594 1437.878906 C 1514.761719 1437.65625 1514.738281 1437.410156 1514.738281 1437.183594 C 1514.710938 1431.375 1512.699219 1425.4375 1512.058594 1420.792969 C 1511.238281 1415.15625 1510.390625 1410.785156 1509.519531 1407.679688 C 1509 1405.820312 1508.558594 1405.84375 1508.210938 1407.753906 L 1506.769531 1415.902344 C 1506.390625 1418.085938 1505.820312 1418.136719 1505.101562 1416.027344 C 1503.390625 1410.984375 1502.5 1405.792969 1502.421875 1400.453125 C 1502.390625 1399.164062 1502.148438 1399.113281 1501.679688 1400.304688 C 1489.359375 1431.25 1520.058594 1481.34375 1535.28125 1505.40625 C 1541.109375 1514.644531 1555.121094 1530.019531 1559.191406 1541.171875 C 1561.78125 1548.25 1562.519531 1558.429688 1561.429688 1571.742188 C 1555.640625 1642.398438 1552.890625 1713.15625 1553.160156 1784.035156 C 1553.230469 1808.222656 1560.390625 1830.25 1561.078125 1854.070312 C 1561.109375 1854.863281 1561.5 1855.261719 1562.320312 1855.285156 C 1637.96875 1857.324219 1712.570312 1872.097656 1788.519531 1869.9375 C 1788.75 1869.9375 1788.96875 1870.113281 1788.988281 1870.335938 C 1789.039062 1870.558594 1788.890625 1870.785156 1788.671875 1870.859375 C 1746.679688 1883.625 1706.738281 1888.714844 1661.488281 1888.242188 C 1612.371094 1887.71875 1567.191406 1886.230469 1514.660156 1891.347656 C 1494.71875 1893.257812 1478.75 1894.328125 1466.761719 1894.5 C 1434.550781 1894.972656 1399.699219 1892.933594 1370.320312 1893.484375 C 1348.789062 1893.878906 1326.039062 1894.847656 1305.699219 1894.101562 C 1279.449219 1893.132812 1253.269531 1891 1227.171875 1887.695312 C 1211.109375 1885.683594 1198.460938 1884.589844 1189.25 1884.417969 C 1150.230469 1883.746094 1110.019531 1893.90625 1071.679688 1900.707031 C 1052.78125 1904.0625 1027.300781 1905.054688 995.285156 1903.738281 C 959.273438 1902.25 903.394531 1902.175781 827.648438 1903.492188 C 778.375 1904.359375 727.785156 1911.140625 678.015625 1916.132812 C 642.476562 1919.683594 607.0625 1918.8125 571.820312 1913.523438 C 568.667969 1913.050781 563.648438 1910.992188 556.769531 1907.367188 C 556 1906.945312 555.628906 1906.296875 555.703125 1905.425781 C 555.777344 1904.734375 555.605469 1904.1875 555.230469 1903.765625 C 554.882812 1903.339844 554.3125 1903.144531 553.492188 1903.167969 C 511.792969 1903.839844 470.09375 1903.960938 428.421875 1903.492188 C 396.210938 1903.144531 358.535156 1904.285156 315.445312 1906.945312 C 297.042969 1908.085938 282.464844 1905.378906 261.109375 1900.488281 C 244.839844 1896.738281 228.375 1894.425781 211.710938 1893.507812 C 186.378906 1892.117188 140.679688 1892.265625 105.464844 1892.316406 C 104.792969 1892.316406 104.125 1892.214844 103.480469 1891.992188 L 101.9375 1891.46875 C 100.671875 1891.046875 100.695312 1890.777344 102.011719 1890.601562 C 148.109375 1884.839844 194.324219 1881.511719 240.371094 1875.300781 C 280.007812 1869.964844 320.164062 1870.660156 360.050781 1869.789062 C 360.84375 1869.765625 361.566406 1869.316406 361.9375 1868.621094 C 374.753906 1844.855469 397.527344 1810.78125 424.820312 1799.40625 C 435.550781 1794.9375 450.152344 1794.710938 462.570312 1793.519531 C 467.164062 1793.074219 470.691406 1790.117188 473.199219 1784.679688 C 487.753906 1752.890625 501.6875 1719.214844 504.121094 1684.695312 C 505.089844 1670.761719 504.640625 1642.820312 502.753906 1600.847656 C 501.488281 1572.613281 500.71875 1556.070312 500.445312 1551.226562 C 497.117188 1491.671875 489.070312 1432.714844 476.328125 1374.351562 C 470.269531 1346.660156 463.664062 1319.070312 456.535156 1291.625 C 454.125 1282.335938 453.035156 1273.023438 453.257812 1263.6875 C 453.257812 1263.460938 453.082031 1263.265625 452.859375 1263.214844 C 452.636719 1263.191406 452.414062 1263.339844 452.363281 1263.5625 L 448.960938 1277.445312 C 448.863281 1277.890625 448.441406 1278.191406 447.96875 1278.167969 C 447.496094 1278.140625 447.121094 1277.769531 447.097656 1277.296875 L 445.632812 1258.792969 C 445.234375 1253.675781 444.566406 1253.554688 443.621094 1258.394531 C 443.496094 1259.015625 443.746094 1261.328125 444.390625 1265.328125 C 444.492188 1265.996094 444.316406 1266.070312 443.894531 1265.546875 C 443.546875 1265.152344 443.273438 1264.582031 443.097656 1263.859375 C 440.144531 1251.394531 438.109375 1241.878906 437.015625 1235.324219 C 436.839844 1234.304688 435.402344 1234.257812 435.152344 1235.25 L 433.265625 1243.046875 C 433.015625 1244.042969 431.625 1244.042969 431.378906 1243.046875 L 424.921875 1217.691406 C 424.820312 1217.320312 424.472656 1217.070312 424.074219 1217.09375 C 423.703125 1217.121094 423.378906 1217.417969 423.355469 1217.816406 L 422.488281 1227.777344 C 422.414062 1228.519531 421.816406 1229.089844 421.070312 1229.089844 C 420.324219 1229.117188 419.703125 1228.570312 419.605469 1227.847656 C 418.316406 1218.089844 414.9375 1209.222656 409.472656 1201.25 C 404.355469 1193.75 404.382812 1186.25 403.488281 1177.78125 C 403.015625 1173.386719 402.070312 1173.261719 400.632812 1177.457031 L 396.65625 1188.957031 C 396.484375 1189.429688 395.988281 1189.703125 395.515625 1189.578125 C 395.019531 1189.453125 394.71875 1188.984375 394.796875 1188.484375 C 395.515625 1184.386719 395.714844 1180.066406 395.441406 1175.570312 C 395.417969 1174.875 395.117188 1174.476562 394.597656 1174.378906 C 393.949219 1174.28125 393.554688 1174.550781 393.378906 1175.171875 L 391.367188 1182.402344 C 390.996094 1183.765625 390.621094 1183.765625 390.300781 1182.375 L 386.078125 1164.371094 C 386.003906 1164.023438 385.679688 1163.800781 385.308594 1163.824219 C 384.960938 1163.847656 384.6875 1164.148438 384.664062 1164.496094 L 384.289062 1171.746094 C 384.265625 1172.492188 383.992188 1172.566406 383.519531 1171.996094 C 382.5 1170.726562 381.980469 1169.757812 381.957031 1169.066406 C 381.832031 1157.167969 380.339844 1145.46875 377.507812 1133.921875 C 376.742188 1130.84375 376.121094 1130.867188 375.648438 1133.996094 L 374.378906 1142.09375 C 374.28125 1142.664062 373.757812 1143.085938 373.1875 1143.0625 C 372.59375 1143.011719 372.144531 1142.542969 372.144531 1141.945312 C 372.144531 1133.773438 370.359375 1126.050781 366.757812 1118.75 C 366.457031 1118.128906 365.515625 1118.375 365.566406 1119.046875 L 366.011719 1125.75 C 366.085938 1126.746094 365.636719 1127.09375 364.695312 1126.820312 C 363.925781 1126.597656 363.378906 1125.925781 363.054688 1124.785156 C 360.597656 1116.066406 355.976562 1107.273438 353.792969 1099.652344 C 345.597656 1071.015625 344.230469 1040.667969 343.289062 1011.039062 C 342.589844 989.179688 337.574219 968.421875 328.261719 948.730469 C 327.863281 947.878906 327.492188 947.878906 327.121094 948.75 L 326.597656 950.039062 C 326.375 950.609375 325.753906 950.910156 325.15625 950.738281 C 324.585938 950.570312 324.214844 949.988281 324.3125 949.398438 C 325.007812 945.179688 324.238281 941.230469 322.003906 937.550781 C 320.984375 935.890625 320.585938 936.011719 320.785156 937.949219 L 321.53125 945.300781 C 321.605469 945.96875 320.6875 946.269531 320.363281 945.671875 C 316.441406 938.441406 314.503906 930.71875 314.527344 922.480469 C 314.527344 922.078125 314.230469 921.730469 313.832031 921.679688 C 313.4375 921.628906 313.0625 921.878906 312.964844 922.28125 L 311.101562 929.128906 C 310.730469 930.550781 308.691406 930.449219 308.445312 929.011719 C 306.828125 919.640625 307.175781 910.378906 309.488281 901.210938 C 309.585938 900.820312 309.386719 900.398438 308.988281 900.21875 C 308.617188 900.070312 308.171875 900.21875 307.945312 900.570312 L 299.550781 914.359375 C 299.128906 915.050781 298.0625 914.78125 298.0625 913.960938 C 298.011719 898.460938 306.035156 881.941406 313.285156 867.910156 C 313.484375 867.539062 313.535156 867.140625 313.4375 866.71875 L 313.261719 866.050781 C 313.210938 865.871094 313.136719 865.828125 313.0625 865.949219 C 308.046875 873.230469 302.210938 879.761719 295.578125 885.570312 C 294.832031 886.210938 293.742188 885.441406 294.089844 884.53125 C 296.472656 878.570312 300.96875 873.550781 302.707031 867.640625 C 302.980469 866.769531 302.804688 866.671875 302.210938 867.371094 L 289.046875 882.589844 C 288.027344 883.761719 286.167969 882.660156 286.6875 881.199219 L 302.382812 838.429688 C 302.558594 837.960938 302.507812 837.941406 302.234375 838.359375 L 284.105469 866.300781 C 284.03125 866.398438 283.90625 866.449219 283.78125 866.398438 C 283.65625 866.320312 283.609375 866.199219 283.65625 866.070312 C 287.359375 856.039062 291.703125 846.230469 296.671875 836.640625 C 304.644531 821.269531 308.492188 805.058594 308.246094 788.039062 C 308.195312 784.039062 307.152344 779.300781 305.117188 773.859375 C 302.308594 766.390625 300.273438 758.691406 299.003906 750.820312 C 298.882812 750.039062 298.433594 749.800781 297.691406 750.089844 C 297.539062 750.171875 297.367188 750.289062 297.191406 750.488281 C 296.917969 750.839844 296.347656 750.671875 296.296875 750.21875 L 293.019531 724.808594 C 292.820312 723.171875 292.175781 722.980469 291.082031 724.238281 C 287.132812 728.839844 284.003906 733.949219 281.695312 739.539062 C 281.523438 739.960938 281.074219 740.179688 280.628906 740.089844 C 280.179688 739.960938 279.882812 739.539062 279.933594 739.089844 L 284.179688 700.550781 C 284.550781 697.101562 284.179688 697 283.085938 700.300781 C 281.25 705.839844 278.765625 711.058594 275.636719 715.96875 C 273.375 719.519531 272.332031 719.179688 272.507812 714.980469 L 273.949219 682 C 274.023438 680.160156 273.671875 680.058594 272.902344 681.71875 L 269.152344 689.769531 C 269.03125 690.070312 268.65625 690.191406 268.382812 690.039062 C 268.136719 689.921875 267.886719 689.769531 267.640625 689.621094 C 267.464844 689.550781 267.414062 689.398438 267.464844 689.21875 C 269.328125 681.601562 269.425781 673.980469 267.738281 666.371094 C 266.871094 662.5 267.589844 659.320312 267.488281 655.398438 C 267.464844 653.878906 267.144531 653.808594 266.523438 655.199219 C 264.335938 660.121094 263.738281 665.160156 264.707031 670.320312 C 264.90625 671.441406 264.660156 671.539062 263.988281 670.640625 C 262.074219 668.238281 261.132812 666.199219 261.132812 664.558594 C 261.15625 658.429688 261.109375 652.25 261.007812 646.058594 C 260.984375 644.691406 260.585938 644.570312 259.867188 645.738281 C 257.554688 649.441406 255.816406 653.410156 254.601562 657.609375 C 254.277344 658.800781 253.78125 658.871094 253.136719 657.808594 C 252.6875 657.089844 252.613281 656.039062 252.886719 654.648438 C 255.296875 642.609375 257.429688 633.46875 259.246094 627.261719 C 259.792969 625.398438 259.46875 625.21875 258.25 626.710938 L 249.882812 637.019531 C 249.582031 637.371094 249.011719 637.089844 249.136719 636.648438 C 251.746094 626.660156 253.332031 616.511719 253.90625 606.199219 C 253.980469 604.679688 253.679688 604.589844 252.960938 605.929688 C 251.296875 609.109375 250.082031 612.429688 249.359375 615.910156 C 249.085938 617.179688 247.347656 617.300781 246.902344 616.109375 C 245.5625 612.609375 248.21875 602.28125 248.9375 598.230469 C 249.210938 596.789062 248.886719 596.660156 247.996094 597.828125 C 245.957031 600.558594 244.417969 605.679688 241.660156 607.320312 C 241.089844 607.640625 240.890625 607.488281 241.066406 606.839844 L 244.988281 591.941406 C 245.261719 590.929688 245.015625 590.800781 244.269531 591.550781 C 241.585938 594.199219 240.070312 597.460938 239.699219 601.308594 C 239.625 602.03125 238.679688 602.28125 238.285156 601.660156 C 237.664062 600.710938 237.5625 599.339844 238.035156 597.53125 C 240.445312 588.121094 243.152344 580.46875 246.179688 574.589844 C 246.253906 574.429688 246.179688 574.28125 246.03125 574.238281 C 245.710938 574.160156 245.511719 574.238281 245.386719 574.429688 C 243.671875 577.488281 241.238281 579.398438 238.0625 580.199219 C 237.316406 580.398438 236.746094 579.5 237.242188 578.878906 L 244.964844 569.191406 C 245.238281 568.851562 245.210938 568.328125 244.890625 568 C 244.566406 567.679688 244.046875 567.660156 243.699219 567.949219 L 238.605469 572.078125 C 237.9375 572.601562 237.191406 572.839844 236.320312 572.820312 C 235.476562 572.769531 234.957031 572.449219 234.78125 571.828125 "/>
</svg>
